{"glyphs":{":":{"x_min":0,"x_max":374,"ha":374,"o":"m 273 352 l 247 336 q 217 321 185 321 q 133 321 92 356 q 52 391 44 447 q 42 465 43 476 q 45 496 48 504 q 60 549 93 578 q 126 606 172 611 q 179 612 193 612 q 249 612 290 568 q 331 525 331 468 q 331 444 322 418 q 308 380 273 352 z m 273 13 q 268 8 261 4 q 259 3 247 -4 q 217 -19 185 -19 q 133 -19 92 16 q 52 51 44 107 q 43 115 43 118 q 42 127 43 136 q 43 143 44 150 q 44 153 48 165 q 60 210 93 238 q 126 266 172 271 q 179 272 194 272 q 249 272 290 228 q 331 185 331 129 q 331 104 322 78 q 308 39 273 13 z"},"$":{"x_min":0,"x_max":422,"ha":422,"o":"m 375 436 q 339 436 325 429 q 311 422 311 407 q 311 403 314 392 q 316 382 327 360 q 338 339 355 307 q 365 290 365 261 q 365 228 344 189 q 336 173 322 160 q 308 146 280 128 l 264 118 q 260 94 260 64 q 260 36 265 3 q 246 6 218 7 q 191 8 187 8 q 169 8 152 5 q 134 2 124 0 q 128 14 130 31 q 132 48 132 65 q 132 76 132 81 q 131 88 131 91 l 48 109 q 48 135 48 161 q 45 183 44 193 q 39 238 29 277 l 66 273 l 92 273 q 122 276 122 302 q 122 305 120 313 q 114 330 103 349 q 89 372 68 401 q 62 409 59 425 l 59 429 l 59 444 q 59 538 142 587 l 165 598 l 164 624 l 163 649 q 163 678 161 695 q 159 712 159 720 q 179 718 219 717 q 259 716 277 716 l 320 717 l 317 693 l 313 668 l 309 644 l 305 620 l 352 607 l 354 568 q 360 499 393 433 z"},"?":{"x_min":0,"x_max":525,"ha":525,"o":"m 389 309 q 348 283 290 275 l 267 273 q 263 261 263 255 q 262 248 264 234 l 198 234 q 170 234 144 234 q 118 233 88 230 q 95 253 96 280 q 97 308 97 391 l 96 414 l 110 411 q 145 405 161 405 q 166 405 171 405 q 178 407 181 407 q 231 417 251 446 q 267 469 267 492 q 267 538 209 558 q 201 561 192 562 q 184 562 179 563 q 150 563 138 555 q 127 547 127 526 q 127 517 128 512 l 130 502 l 94 498 q 86 554 73 598 q 60 642 26 727 l 14 757 l 45 771 l 49 762 q 61 743 71 738 l 134 756 q 152 761 184 761 q 199 761 215 761 q 231 758 246 756 q 261 754 270 752 q 279 750 298 743 q 366 719 409 678 q 452 637 474 588 q 497 539 497 490 q 497 455 485 422 q 470 382 450 358 q 431 334 389 309 z m 270 46 q 255 10 220 -6 q 199 -16 175 -16 q 140 -16 116 4 q 92 24 84 44 q 75 64 75 92 q 75 144 118 173 q 148 194 177 194 q 199 194 222 182 l 238 171 q 261 154 272 124 q 278 104 278 87 q 278 67 270 46 z"},"L":{"x_min":0,"x_max":568,"ha":568,"o":"m 550 297 l 547 286 q 542 260 538 222 q 533 183 533 135 q 533 87 534 62 q 536 37 543 -20 l 547 -47 l 507 -60 q 498 -19 479 -10 q 460 -1 373 -1 q 334 -1 288 -1 q 241 -1 187 -2 q 126 -2 42 -12 l 25 -14 l 9 -16 l 0 20 l 5 21 l 35 29 q 71 39 79 76 q 87 114 87 270 l 87 431 l 87 516 q 87 638 78 659 q 69 680 22 692 l 0 695 l 6 728 l 59 722 q 91 722 122 722 q 154 721 186 721 q 246 721 291 724 q 336 726 384 733 l 386 695 q 335 687 319 667 q 299 642 299 571 q 299 505 316 343 l 317 229 l 429 231 l 441 232 q 479 239 493 252 q 507 264 513 297 l 515 313 l 554 313 z"},"3":{"x_min":0,"x_max":667,"ha":667,"o":"m 467 21 q 432 0 383 -10 q 334 -19 274 -19 l 239 -15 q 197 -7 178 0 q 160 7 119 31 q 110 37 98 34 l 85 24 l 66 12 l 40 42 l 55 58 l 73 78 q 122 135 150 181 q 178 227 196 282 l 229 267 l 223 232 q 221 216 221 212 q 221 197 232 192 q 242 187 279 184 q 299 184 314 187 q 330 190 344 199 q 380 222 380 259 q 380 292 349 315 q 333 326 308 333 q 305 334 290 336 q 276 339 252 339 l 224 339 l 212 339 l 236 402 l 280 522 l 281 527 l 284 540 q 261 540 240 540 q 218 539 198 538 q 169 538 160 534 q 151 529 142 506 l 138 494 l 105 512 l 112 546 q 121 585 121 649 q 121 687 117 718 l 112 758 l 151 771 l 154 763 q 168 733 184 726 q 201 720 273 720 q 281 720 286 720 q 294 720 298 720 q 305 720 309 720 q 328 720 350 720 q 371 720 395 721 q 404 721 409 721 l 568 723 q 492 598 450 465 l 481 450 q 540 415 568 372 q 595 328 595 265 q 595 254 594 238 q 592 223 591 214 q 574 87 467 21 z"},";":{"x_min":0,"x_max":385,"ha":385,"o":"m 273 352 l 247 336 q 217 321 185 321 q 133 321 92 356 q 52 391 44 447 q 42 465 43 476 q 45 496 48 504 q 60 549 93 578 q 126 606 172 611 q 179 612 193 612 q 249 612 290 568 q 331 525 331 468 q 331 444 322 418 q 308 380 273 352 z m 331 54 q 311 -7 254 -41 q 247 -46 234 -51 q 213 -60 173 -71 q 151 -76 131 -80 q 111 -83 91 -83 l 91 -47 l 117 -46 q 168 -41 212 -17 l 180 -16 q 116 -7 78 32 q 41 70 41 124 q 41 149 50 173 q 64 213 97 238 q 138 270 187 270 q 230 270 271 244 q 303 222 322 188 q 340 153 340 111 q 340 83 331 54 z"},"J":{"x_min":0,"x_max":486,"ha":486,"o":"m 452 697 q 417 690 409 672 q 401 655 401 569 q 401 531 402 432 q 403 332 403 298 l 403 258 q 403 148 374 92 q 345 37 277 5 q 251 -9 211 -15 q 190 -18 175 -18 q 158 -18 102 -12 q 98 -11 95 -11 q 90 -11 88 -11 q 64 -11 51 -39 l 48 -49 l 14 -42 l 21 -2 q 34 73 34 136 q 34 197 20 262 l 52 269 q 52 249 67 232 q 87 208 114 208 q 140 208 152 228 q 158 236 164 258 q 171 281 172 320 q 174 360 174 448 q 174 492 173 512 q 172 531 169 560 q 160 661 160 662 q 155 692 98 692 l 88 692 l 92 730 l 125 728 l 153 726 q 192 726 282 727 q 373 728 426 728 l 464 730 l 464 699 z"},"V":{"x_min":0,"x_max":898,"ha":898,"o":"m 899 606 q 886 614 877 614 q 851 614 800 542 q 757 481 617 251 q 595 215 549 137 q 526 99 504 61 l 448 -37 l 308 206 q 222 355 137 505 q 86 592 64 615 q 48 631 21 631 l 2 631 l -2 631 l -14 666 l 24 675 q 87 690 120 700 q 153 709 177 718 l 185 721 l 318 777 l 321 778 l 341 786 l 358 753 l 335 737 q 315 723 315 712 q 315 702 352 612 l 375 561 l 454 387 l 532 549 q 600 686 600 716 q 600 736 575 753 l 566 758 l 590 794 l 647 761 q 779 690 912 643 z"},"7":{"x_min":0,"x_max":667,"ha":667,"o":"m 514 469 q 450 324 400 211 q 359 118 344 79 q 329 40 329 25 q 329 19 336 3 q 344 -13 363 -21 l 331 -59 l 278 -19 q 189 43 77 91 l 32 109 l 43 149 l 49 147 l 69 142 q 80 139 89 139 q 118 139 150 194 q 182 248 269 441 l 307 513 l 285 514 l 194 514 q 141 514 128 509 q 115 504 99 479 q 92 467 89 455 l 56 472 l 72 515 q 88 565 95 608 q 102 652 102 693 q 102 736 95 770 l 138 782 q 138 751 162 734 q 175 726 216 720 q 257 713 322 713 q 378 713 429 716 q 480 720 559 729 l 610 733 l 634 707 q 546 544 514 469 z"},"S":{"x_min":0,"x_max":660,"ha":660,"o":"m 607 443 l 603 458 q 590 499 578 510 q 565 522 532 522 q 511 522 491 516 q 453 503 438 478 q 423 454 423 394 q 423 351 427 315 q 431 279 433 258 q 433 243 432 230 q 430 218 423 194 q 410 149 379 106 q 339 50 288 20 q 236 -9 157 -17 l 122 -19 l 97 -19 q 87 -20 79 -30 q 67 -44 70 -62 l 35 -59 l 35 -41 l 36 -31 l 43 56 q 43 73 42 93 q 42 113 42 136 q 42 146 42 151 q 42 170 39 190 q 33 220 30 235 l 22 268 l 67 277 l 67 267 q 67 211 103 211 q 119 211 140 218 q 161 224 170 240 q 180 256 180 292 q 180 326 167 422 l 162 451 q 161 458 161 463 q 161 469 162 480 q 163 491 166 516 q 170 542 186 576 q 201 611 224 638 q 247 665 282 688 q 310 706 346 718 q 382 730 432 736 l 478 739 q 500 739 512 739 q 525 739 531 739 q 562 739 569 743 q 576 747 581 767 l 582 780 l 619 779 l 614 716 l 614 616 q 614 559 621 526 q 628 492 646 453 z"},"Z":{"x_min":0,"x_max":630,"ha":630,"o":"m 496 497 q 463 423 434 354 q 404 286 396 260 l 393 250 l 389 233 l 421 234 l 438 234 l 490 233 l 501 233 q 521 233 525 237 q 530 242 535 265 l 541 294 l 585 291 q 583 272 582 247 q 581 222 581 199 q 581 170 583 99 q 585 28 585 16 l 591 -39 l 546 -45 l 545 -37 q 539 -8 526 0 q 512 7 459 7 q 404 7 346 6 q 289 5 235 4 l 22 -9 q 70 77 96 131 q 177 297 207 368 q 237 440 253 494 l 254 501 l 259 519 l 193 522 q 153 522 114 522 q 81 519 67 486 l 62 472 l 31 483 l 34 504 l 37 522 l 38 532 l 42 550 q 47 579 47 673 q 47 710 39 752 l 36 766 l 32 780 l 73 787 l 77 774 q 92 742 128 732 q 165 721 272 721 l 516 725 l 524 725 l 608 735 q 544 606 496 497 z"},")":{"x_min":0,"x_max":418,"ha":418,"o":"m 69 -103 q 47 -111 31 -115 q 26 -116 7 -120 l 7 15 q 37 29 61 51 q 100 89 115 132 q 134 188 134 301 l 134 414 q 134 526 115 582 q 100 627 61 664 q 34 689 7 700 l 7 835 q 43 828 69 819 q 196 776 273 683 q 350 590 368 459 q 376 398 376 350 q 376 178 296 62 q 217 -53 69 -103 z"},"&":{"x_min":0,"x_max":847,"ha":847,"o":"m 736 49 l 722 36 l 657 -23 l 624 -53 l 595 -25 q 617 -20 617 1 q 617 5 613 13 l 607 22 l 580 48 q 573 55 562 66 q 555 73 552 73 q 550 73 505 37 q 474 13 428 0 q 382 -13 318 -13 q 285 -13 255 -8 q 225 -2 200 7 q 59 59 38 194 q 36 203 36 212 q 36 222 36 228 q 36 339 125 417 l 149 437 l 137 453 q 110 495 110 543 q 110 604 152 654 q 195 704 270 721 l 296 726 q 317 729 324 730 q 332 731 350 731 q 362 731 376 730 q 391 728 399 727 l 417 725 l 423 724 q 436 724 444 732 q 452 740 450 752 l 486 751 l 486 739 l 486 732 l 478 664 l 477 606 q 477 570 479 553 q 481 536 487 520 l 451 510 l 448 517 l 437 539 q 422 568 397 568 q 382 568 354 558 q 326 549 326 519 q 326 496 344 485 q 363 474 418 468 l 431 467 l 424 431 l 498 359 l 523 337 l 532 347 q 551 370 551 378 q 551 384 530 401 l 508 419 l 531 454 l 554 440 l 594 417 q 644 389 674 374 q 705 360 760 341 l 793 330 l 810 324 l 792 283 l 774 291 q 751 297 743 297 q 731 297 718 281 l 698 252 q 681 221 681 208 q 681 192 719 164 l 745 146 q 762 136 769 136 q 778 136 802 150 l 810 156 l 833 127 z m 377 229 l 364 240 l 283 302 q 256 290 256 257 q 254 232 276 212 q 297 191 327 191 q 334 192 337 192 q 347 192 358 196 q 368 201 379 209 l 390 219 z"},"_":{"x_min":0,"x_max":562,"ha":562,"o":"m -7 0 l -7 36 l 569 36 l 569 0 z"},"O":{"x_min":0,"x_max":796,"ha":796,"o":"m 472 -2 q 436 -9 396 -9 q 285 -9 196 50 q 108 108 61 214 q 45 249 37 289 q 29 329 29 367 q 29 400 37 438 q 70 580 166 660 q 262 740 396 740 q 436 740 472 733 q 578 714 656 636 q 735 557 759 443 q 763 427 765 406 q 767 386 767 366 q 767 335 766 324 q 764 312 759 290 q 736 176 658 96 q 579 17 472 -2 z m 479 488 q 442 516 398 516 q 355 516 317 488 q 258 443 258 366 q 258 287 317 243 q 357 214 398 214 q 441 214 479 243 q 538 287 538 365 q 538 444 479 488 z"},"(":{"x_min":0,"x_max":418,"ha":418,"o":"m 349 -103 q 222 -60 146 32 q 69 125 50 257 q 42 318 42 366 q 42 537 122 652 q 201 768 349 819 q 361 823 374 826 q 387 830 411 835 l 411 700 q 396 694 383 685 q 370 676 357 664 q 319 627 304 583 q 285 526 285 414 l 285 301 q 285 188 303 133 q 317 89 357 51 q 381 29 411 15 l 411 -120 q 394 -117 382 -114 q 369 -110 349 -103 z"},"C":{"x_min":0,"x_max":749,"ha":749,"o":"m 720 30 l 708 43 q 690 58 678 58 q 664 58 589 16 q 579 10 566 6 q 552 3 519 -4 q 460 -16 413 -16 q 387 -16 360 -13 q 279 -3 215 32 q 151 68 105 126 q 102 130 89 148 q 85 153 80 163 q 28 246 28 345 q 28 445 57 514 q 86 584 155 648 q 210 699 286 722 q 361 744 471 744 q 480 744 488 744 q 497 743 533 738 q 569 732 612 718 q 625 714 634 711 q 644 708 650 708 q 663 708 679 733 l 684 746 l 722 726 q 679 665 656 605 q 633 545 624 513 q 615 481 615 451 l 572 456 q 577 466 577 476 q 577 502 549 521 q 521 540 466 540 q 372 540 316 498 q 261 456 261 383 q 261 312 292 269 q 322 226 391 207 q 415 200 443 200 q 469 200 499 208 q 565 226 565 243 q 565 251 559 265 l 550 286 l 588 310 l 610 264 q 651 184 684 138 q 714 95 755 59 z"},"W":{"x_min":0,"x_max":1049,"ha":1049,"o":"m 1048 627 l 1038 628 q 1004 628 994 614 q 984 601 941 505 q 916 448 873 334 q 835 233 792 114 l 740 -30 l 731 -11 l 721 13 q 684 90 656 140 q 628 190 570 279 l 544 317 q 512 270 486 224 q 460 179 420 99 l 375 6 l 354 -36 l 342 -5 l 333 17 l 222 262 q 108 512 82 564 q 55 616 35 622 q 32 623 24 623 q 12 623 2 616 l -14 648 l 35 661 q 194 709 320 774 l 340 742 l 327 735 q 315 728 302 720 q 290 711 290 699 q 290 690 314 632 l 323 611 l 379 490 l 386 474 q 418 538 448 608 q 479 677 509 754 l 522 787 l 527 800 l 549 748 q 586 659 615 602 q 644 544 683 481 l 708 543 l 713 558 l 747 642 l 751 654 l 757 673 q 767 709 767 724 q 767 739 747 762 l 739 769 l 761 794 q 871 726 1017 675 l 1063 660 z"},"A":{"x_min":0,"x_max":848,"ha":848,"o":"m 683 -25 q 629 -52 575 -92 l 549 -66 l 563 -49 l 571 -41 q 576 -37 570 -21 q 565 -5 557 13 l 552 25 l 537 65 q 474 74 411 74 q 347 74 284 65 l 266 27 q 253 1 253 -12 q 253 -25 269 -38 l 278 -44 l 254 -76 q 231 -62 208 -49 q 191 -40 164 -26 l 159 -23 l 90 9 l -14 61 l 0 96 l 5 92 q 19 86 24 86 q 44 86 84 157 q 92 171 167 309 q 189 351 208 384 q 240 436 262 473 q 329 587 360 643 q 386 690 415 751 l 432 786 l 442 807 l 463 757 l 474 734 l 487 707 q 595 486 704 266 q 769 135 795 101 q 814 76 844 76 l 853 77 l 862 44 q 817 34 776 18 q 734 2 683 -25 z m 456 281 l 440 318 l 427 347 l 414 376 l 384 308 q 371 271 364 242 q 387 238 415 238 q 443 238 472 244 z"},"Q":{"x_min":0,"x_max":795,"ha":795,"o":"m 771 38 q 718 12 682 -14 q 646 -40 612 -77 l 600 -90 l 569 -68 l 571 -65 l 579 -56 q 588 -42 588 -38 q 588 -33 576 -16 l 551 18 q 537 12 522 8 q 508 4 478 -2 q 458 -5 438 -7 q 418 -9 400 -9 q 286 -9 197 49 q 108 107 61 214 q 29 287 29 360 q 29 399 38 438 q 70 580 166 660 q 261 740 396 740 q 436 740 472 733 q 619 707 706 575 q 741 519 757 450 q 769 393 769 347 q 769 289 750 244 q 732 200 698 170 l 740 110 q 756 87 770 87 q 776 87 789 92 l 797 97 l 817 58 z m 479 488 q 442 516 398 516 q 355 516 317 488 q 258 443 258 366 q 258 287 317 243 q 357 214 398 214 q 441 214 479 243 q 538 287 538 365 q 538 444 479 488 z"},"-":{"x_min":0,"x_max":368,"ha":368,"o":"m 29 244 q 33 260 35 282 q 37 303 37 323 q 37 368 29 403 l 339 403 q 330 364 330 324 q 330 283 339 244 z"},"E":{"x_min":0,"x_max":609,"ha":609,"o":"m 539 501 l 535 507 l 525 523 q 515 537 505 540 q 495 543 450 543 q 431 543 419 543 l 365 540 l 328 537 l 314 535 l 312 515 l 311 494 l 310 473 l 310 453 l 354 451 q 370 451 376 451 q 397 451 402 456 q 406 460 415 488 l 418 499 l 456 497 q 453 483 452 469 q 451 455 451 437 q 451 396 467 300 l 474 266 l 437 261 l 433 266 l 424 277 q 411 291 400 291 q 393 291 381 289 q 369 287 358 286 l 307 279 l 312 205 l 339 204 q 351 204 356 204 q 365 204 369 204 q 404 204 427 207 q 478 213 490 220 q 502 227 506 254 l 509 275 l 509 280 l 550 278 l 544 231 q 541 210 540 186 q 539 163 539 136 q 539 41 559 -37 l 522 -47 l 510 -21 q 502 -9 488 -4 q 474 0 443 0 q 426 0 297 -3 q 168 -6 135 -6 l 21 -17 l 14 14 l 26 16 q 66 26 76 42 q 86 58 86 128 q 83 248 80 373 q 78 498 78 594 l 75 625 q 70 663 65 672 q 60 681 42 685 l 17 692 l 23 729 l 243 718 l 368 718 q 463 718 486 726 q 509 733 517 766 l 520 781 l 554 776 l 554 753 l 554 739 l 554 708 l 553 678 q 553 640 554 624 q 556 608 561 570 l 573 512 z"},"8":{"x_min":0,"x_max":668,"ha":668,"o":"m 378 -17 q 357 -20 335 -20 q 314 -20 291 -17 q 198 -5 138 44 q 99 76 78 120 q 58 164 58 211 q 58 262 82 308 q 105 354 150 386 l 168 397 l 153 411 q 121 444 104 481 q 88 518 88 557 q 88 652 176 706 q 198 720 226 728 q 253 736 297 740 l 370 740 q 412 736 441 728 q 470 720 492 706 q 534 680 556 640 q 579 601 579 556 q 579 517 564 481 q 548 445 515 411 l 500 397 l 517 386 q 563 354 586 308 q 610 262 610 210 q 610 162 590 120 q 571 77 530 44 q 470 -5 378 -17 z m 372 572 l 360 577 q 343 583 333 583 q 326 583 323 582 q 284 574 278 546 q 273 525 291 506 q 309 487 334 487 q 345 487 350 489 q 366 494 375 504 q 390 521 390 539 q 390 561 372 572 z m 318 291 q 305 288 294 279 q 270 256 270 232 q 270 228 272 218 q 275 207 286 196 q 297 185 309 180 q 321 175 334 175 q 343 175 354 178 q 375 186 386 200 q 398 215 398 232 q 398 251 383 269 q 363 293 333 293 q 328 293 318 291 z"},"%":{"x_min":0,"x_max":1044,"ha":1044,"o":"m 986 87 q 936 3 836 -14 q 818 -17 800 -17 q 784 -17 767 -14 q 707 -4 661 37 q 626 70 610 106 q 595 142 595 193 l 595 217 q 595 264 610 298 q 626 333 657 364 q 707 414 784 422 q 790 423 798 423 q 805 423 809 423 q 815 423 821 423 q 829 421 833 421 q 947 405 994 300 q 1001 285 1006 263 q 1015 222 1015 190 q 1015 136 986 87 z m 640 545 q 596 408 557 274 q 518 141 483 0 l 339 0 q 461 348 555 720 l 699 720 z m 420 401 q 370 317 270 300 q 252 297 234 297 q 217 297 200 300 q 139 310 95 351 q 59 384 44 419 q 28 454 28 507 l 29 531 q 29 578 44 612 q 59 647 90 678 q 141 728 217 736 q 226 737 242 737 q 251 737 267 735 q 381 719 427 614 q 434 599 439 577 q 449 537 449 502 q 449 473 442 450 q 436 427 420 401 z m 809 285 q 731 285 731 210 q 732 201 732 197 q 732 147 780 130 q 792 125 802 125 q 807 125 817 127 q 882 138 882 199 q 882 209 881 214 q 877 246 856 266 q 836 285 809 285 z m 242 599 q 165 599 165 511 q 165 461 213 444 q 226 439 239 439 q 246 439 250 440 q 316 452 316 514 q 316 523 315 528 q 310 561 290 580 q 270 599 242 599 z"},",":{"x_min":0,"x_max":357,"ha":357,"o":"m 317 54 q 297 -7 240 -41 q 233 -46 220 -51 q 199 -60 159 -71 q 137 -76 117 -80 q 97 -83 77 -83 l 77 -47 l 103 -46 q 154 -41 198 -17 l 166 -16 q 102 -7 64 32 q 27 70 27 124 q 27 149 36 173 q 50 213 83 238 q 124 270 173 270 q 216 270 257 244 q 289 222 308 188 q 326 153 326 111 q 326 83 317 54 z"},"B":{"x_min":0,"x_max":675,"ha":675,"o":"m 511 9 q 485 -3 448 -10 q 412 -16 360 -16 q 298 -16 193 -7 q 169 -7 140 -3 q 111 1 95 3 l 54 -1 l 44 -1 l 19 -2 l 14 42 l 33 39 q 75 39 82 98 q 90 156 90 427 l 90 511 q 90 633 84 654 q 79 676 49 681 l 21 688 l 22 719 q 43 719 75 717 q 107 715 120 715 l 125 715 l 315 736 q 329 738 342 738 q 354 738 360 738 q 375 738 382 738 q 422 738 446 734 q 470 729 514 704 q 557 679 581 640 q 605 600 605 553 q 605 495 568 440 q 545 409 518 390 l 539 379 q 589 348 614 301 q 639 254 639 193 q 639 69 511 9 z m 307 560 l 293 559 q 291 534 290 522 q 289 510 289 500 q 289 479 292 458 q 300 456 317 456 q 360 456 381 472 q 402 487 402 511 q 402 517 401 521 q 396 543 376 552 q 357 560 307 560 z m 309 278 l 295 277 q 289 248 289 219 q 289 205 290 197 q 291 189 294 171 l 317 168 q 356 168 378 180 q 399 192 399 219 q 399 226 398 234 q 396 242 388 252 q 377 266 360 272 q 343 278 309 278 z"},"K":{"x_min":0,"x_max":803,"ha":803,"o":"m 768 535 l 756 542 q 733 552 721 552 q 700 552 666 522 q 639 498 552 406 l 529 382 l 570 334 q 617 277 664 221 q 711 165 729 165 q 735 165 753 172 l 764 180 l 786 148 q 724 121 688 98 q 651 74 559 0 l 528 -25 l 502 -48 l 480 -19 l 489 -12 q 508 5 508 17 q 508 34 387 211 l 308 329 q 308 287 308 240 q 308 192 309 138 l 313 76 q 313 50 324 40 q 336 31 374 26 l 389 25 l 382 -14 l 339 -10 q 242 0 168 0 q 83 0 8 -15 l 0 29 l 16 31 q 64 40 72 58 q 81 77 81 182 l 87 296 l 87 306 q 87 315 87 320 q 87 328 87 332 q 87 351 86 370 q 86 388 86 407 q 86 414 86 418 q 86 612 76 646 q 67 681 14 686 l 4 687 l 6 731 l 28 729 q 121 720 200 720 q 230 720 261 722 q 292 723 324 727 l 347 729 l 371 733 l 379 692 l 370 691 q 326 682 318 672 q 310 662 310 614 l 308 579 l 304 476 l 365 538 l 380 554 l 444 621 q 517 697 517 718 q 517 728 509 737 q 501 746 497 750 l 490 756 l 521 785 l 560 742 q 615 684 655 653 q 695 622 746 594 l 789 573 z"},"R":{"x_min":0,"x_max":759,"ha":759,"o":"m 724 130 q 637 68 598 32 q 559 -3 518 -56 l 504 -75 l 470 -50 l 479 -35 q 485 -19 484 -3 q 484 19 465 51 q 443 88 386 154 l 352 195 l 311 241 l 295 260 l 296 225 q 296 83 303 62 q 310 40 361 29 l 372 27 l 366 -13 l 324 -7 q 238 3 169 3 q 123 3 85 -2 l 17 -16 l 6 26 l 19 28 q 44 34 52 39 q 68 49 68 86 l 86 311 q 100 465 100 535 q 100 620 86 648 q 71 677 36 686 l 4 694 l 16 736 q 42 732 70 729 q 97 726 128 726 q 155 726 194 730 q 301 741 364 741 q 371 742 375 742 q 385 742 410 741 q 436 740 442 740 l 475 735 q 515 728 542 718 q 568 707 594 689 q 642 654 666 613 q 689 572 689 515 q 689 442 673 396 q 657 351 616 316 q 589 293 560 282 l 584 257 q 628 212 642 199 q 671 171 687 171 q 690 171 708 175 l 729 180 l 745 144 z m 320 523 l 294 521 q 291 503 290 475 q 289 447 289 422 l 292 378 l 320 376 q 376 376 404 392 q 433 407 438 436 q 440 450 440 457 q 440 491 412 507 q 383 523 320 523 z"},"T":{"x_min":0,"x_max":592,"ha":592,"o":"m 539 459 l 536 484 q 534 507 532 509 q 529 512 509 516 l 486 520 l 469 519 q 440 517 432 505 q 423 493 423 447 q 423 435 426 336 q 429 237 429 142 l 435 71 q 435 53 440 48 q 446 44 478 33 l 487 31 l 476 -16 l 435 -10 q 369 -1 302 -1 q 248 -1 212 -5 q 176 -9 157 -11 l 118 -16 l 110 28 l 137 34 q 170 43 178 76 q 187 110 187 242 l 186 496 q 186 518 180 521 q 173 524 132 524 l 110 522 l 99 520 l 78 516 q 60 511 55 504 q 50 498 46 473 l 45 466 l 7 468 q 14 523 17 562 q 20 600 20 694 l 22 764 l 57 766 l 57 761 q 57 732 70 726 q 82 720 159 720 l 308 720 l 431 720 q 500 720 512 725 q 523 730 529 762 l 530 770 l 570 767 l 570 747 l 569 735 l 567 708 l 565 675 q 565 635 566 607 q 568 579 578 515 l 585 465 z"},"P":{"x_min":0,"x_max":675,"ha":675,"o":"m 648 379 q 604 274 493 234 q 462 223 433 218 q 404 212 355 212 l 307 211 l 305 198 q 305 89 306 80 q 311 34 367 27 l 379 26 l 371 -15 l 308 -8 q 237 -1 166 -1 q 129 -1 88 -4 q 48 -7 9 -12 l 2 27 l 13 30 q 53 39 63 46 q 84 59 84 131 q 84 138 84 142 q 84 163 84 186 q 83 210 83 237 q 83 248 83 254 l 85 383 q 85 395 84 408 q 79 472 79 550 l 77 586 q 77 650 66 668 q 55 686 17 686 q 12 687 0 685 l 2 726 l 20 725 l 28 724 l 74 720 l 92 718 q 99 717 120 717 q 160 717 230 722 q 311 730 368 734 l 387 736 l 399 736 q 408 736 418 736 q 428 735 438 735 q 532 726 588 678 q 643 631 661 547 q 664 532 666 517 q 668 502 668 486 q 668 427 648 379 z m 373 541 q 361 543 353 542 l 346 542 l 310 538 l 292 537 l 291 509 q 291 485 291 470 q 291 454 295 414 l 318 411 q 437 411 437 475 q 437 485 434 497 q 424 532 373 541 z"},"M":{"x_min":0,"x_max":1044,"ha":1044,"o":"m 1023 32 q 925 9 864 -14 q 802 -37 739 -72 l 723 -35 q 742 -29 752 -22 q 761 -14 761 0 q 761 26 714 129 l 680 225 l 586 82 l 560 41 l 542 12 l 528 -11 l 512 -38 l 484 12 l 461 52 l 405 149 l 391 173 l 357 234 l 320 149 l 306 115 l 293 82 q 285 61 277 40 q 265 10 265 1 q 265 -10 276 -20 q 289 -29 296 -35 l 304 -41 l 282 -67 q 257 -53 230 -40 q 203 -26 179 -16 q 124 7 74 23 q 25 39 -14 47 l -11 77 q -3 75 1 75 q 17 75 34 100 q 48 121 86 200 l 160 357 l 167 372 q 191 428 219 501 q 254 595 288 694 l 306 748 l 325 714 l 370 635 q 427 537 452 496 q 483 447 525 388 l 568 456 q 638 567 672 627 q 706 687 740 759 q 762 681 771 650 q 780 618 795 574 q 894 293 914 238 q 952 133 971 102 q 987 76 1010 69 q 1015 67 1027 67 q 1041 67 1051 72 l 1058 40 z"},".":{"x_min":0,"x_max":346,"ha":346,"o":"m 259 13 q 254 8 247 4 q 245 3 233 -4 q 203 -19 171 -19 q 119 -19 78 16 q 38 51 30 107 q 29 115 29 118 q 28 127 29 136 q 29 143 30 150 q 30 153 34 165 q 46 210 79 238 q 112 266 158 271 q 165 272 180 272 q 235 272 276 228 q 317 185 317 129 q 317 104 308 78 q 294 39 259 13 z"},"X":{"x_min":0,"x_max":879,"ha":879,"o":"m 590 -36 l 539 -67 l 521 -38 l 530 -31 q 560 -7 560 9 q 560 28 503 126 l 475 170 l 463 189 l 450 206 l 426 169 q 361 71 361 49 q 361 33 394 24 l 407 22 l 396 -18 q 308 4 255 11 q 175 22 54 22 l -7 23 l -3 59 l 14 58 q 33 58 42 60 q 69 65 88 81 q 106 97 178 179 q 266 280 325 372 l 227 475 q 181 524 135 573 q 111 596 95 596 q 90 596 72 592 l 64 589 l 52 626 q 99 640 146 662 q 192 685 246 722 q 301 758 348 802 l 373 779 l 361 768 q 345 750 345 735 q 345 712 385 652 l 406 622 l 434 580 l 441 571 l 460 538 q 472 555 481 574 q 511 640 511 658 q 511 676 480 681 l 469 681 l 474 724 q 562 705 639 696 q 716 686 807 686 l 867 687 l 866 646 q 848 648 842 648 q 813 648 789 629 q 770 614 716 551 l 604 418 l 596 407 l 592 402 l 581 387 l 591 372 l 599 361 l 661 277 q 743 172 749 165 q 793 112 822 112 q 832 112 849 115 l 861 118 l 872 76 q 801 61 737 36 q 673 11 590 -36 z"},"*":{"x_min":0,"x_max":483,"ha":483,"o":"m 446 510 l 436 509 l 428 509 l 419 508 l 395 503 l 332 484 l 377 419 l 391 404 l 397 399 l 400 397 q 405 393 412 391 q 347 366 304 311 l 300 328 l 298 333 l 294 342 l 282 363 l 241 417 l 200 363 l 189 342 l 185 333 l 183 328 l 178 311 q 146 349 99 377 l 70 391 q 79 393 83 397 l 86 399 l 92 404 l 106 419 l 151 484 l 88 503 l 64 508 l 55 509 l 47 509 l 37 510 l 29 510 q 56 555 66 606 l 70 640 q 77 629 88 622 q 99 615 123 607 l 186 587 l 186 653 l 185 681 l 184 687 l 180 703 l 176 717 l 175 720 q 204 716 242 716 q 262 716 283 716 q 300 719 308 720 l 307 717 l 303 703 l 299 687 l 297 681 l 296 653 l 296 587 l 359 607 q 382 614 394 622 q 405 629 412 640 q 418 570 454 510 z"},"Y":{"x_min":0,"x_max":831,"ha":831,"o":"m 827 535 l 820 538 q 804 545 797 545 q 785 545 766 528 q 751 515 704 466 l 685 444 q 552 274 497 203 q 423 107 400 70 q 372 25 372 -1 q 372 -17 383 -36 q 387 -43 398 -59 l 404 -66 l 369 -90 q 323 -41 261 -3 q 193 38 93 75 l 64 86 l 81 121 l 92 117 q 109 112 116 112 q 134 112 166 147 q 178 160 232 221 q 264 256 296 299 l 307 313 l 319 330 q 284 372 247 410 q 210 448 159 492 l 137 510 q 95 545 90 549 q 63 570 45 570 q 34 570 13 564 l -1 559 l -14 592 l 4 600 l 15 605 l 45 618 q 79 632 128 666 q 185 705 249 762 l 274 784 l 289 798 l 317 769 l 314 766 l 302 754 q 288 740 288 732 q 288 723 324 663 q 382 567 453 506 q 503 571 544 639 q 598 726 598 741 q 598 752 583 760 l 612 794 q 653 743 692 706 q 732 668 825 592 l 853 570 z"},"!":{"x_min":0,"x_max":344,"ha":344,"o":"m 288 658 q 263 504 252 434 q 233 312 233 227 q 198 233 164 233 q 136 233 107 227 l 104 283 q 104 385 96 466 q 87 546 73 615 q 67 645 43 740 l 75 737 q 109 737 142 736 q 176 736 208 736 q 224 736 232 736 q 266 736 301 739 z m 269 46 q 262 29 248 16 q 235 2 216 -7 q 198 -16 174 -16 q 139 -16 115 4 q 91 24 82 44 q 74 64 74 92 q 74 144 117 173 q 147 194 176 194 q 198 194 221 182 l 237 171 q 261 152 271 124 q 277 104 277 87 q 277 67 269 46 z"},"/":{"x_min":0,"x_max":418,"ha":418,"o":"m 331 545 q 248 291 173 0 l 29 0 q 91 174 145 356 q 199 538 245 720 l 389 720 q 374 676 359 633 q 348 599 331 545 z"},"6":{"x_min":0,"x_max":671,"ha":671,"o":"m 513 26 q 481 4 442 -8 q 403 -19 356 -19 q 345 -19 340 -19 q 333 -19 324 -18 q 316 -17 312 -17 q 249 -11 197 15 q 116 58 77 125 q 35 198 35 311 q 35 350 38 378 q 42 407 51 441 q 71 513 105 569 q 139 625 184 662 q 237 706 306 726 q 335 735 362 738 q 390 742 420 742 q 451 742 468 739 q 485 736 507 729 q 548 717 559 717 q 571 717 578 738 l 608 717 q 585 681 565 637 l 558 621 l 549 597 q 529 546 524 509 l 477 511 l 477 522 q 475 543 468 550 q 460 558 438 558 q 430 558 420 557 q 411 556 404 556 l 383 553 q 323 541 292 512 q 261 482 261 443 l 328 455 q 340 457 356 458 q 373 459 387 459 q 499 459 564 399 q 629 339 629 241 q 629 208 620 172 q 598 85 513 26 z m 380 276 q 363 287 336 287 q 296 287 275 261 q 263 244 262 229 q 259 204 274 185 q 289 166 322 159 q 328 158 341 158 q 353 158 359 160 q 395 171 405 202 q 410 219 410 229 q 410 259 380 276 z"},"2":{"x_min":0,"x_max":667,"ha":667,"o":"m 595 87 q 595 52 596 18 q 597 -17 600 -52 l 561 -57 l 558 -41 q 549 -15 534 -8 q 519 -2 463 -2 q 432 -2 310 -4 q 189 -7 114 -7 l 93 -9 l 174 122 q 243 235 271 284 q 299 333 318 379 l 321 386 l 330 412 q 338 435 338 452 q 338 461 337 465 q 330 530 269 530 q 253 530 240 526 q 226 523 218 517 q 188 497 188 484 q 188 472 210 450 l 221 440 l 194 413 l 183 423 l 160 444 q 128 472 109 486 q 90 500 42 529 l -5 558 l -21 567 l -1 600 l 8 597 q 24 592 32 591 q 39 590 44 592 l 72 628 q 100 665 152 695 l 179 708 q 224 728 262 732 q 299 735 324 735 q 342 735 359 734 q 376 732 393 728 q 448 714 478 694 q 508 675 535 636 q 554 609 562 581 q 571 553 571 517 q 571 497 568 469 q 564 441 554 414 q 544 386 512 320 l 452 197 l 478 194 q 489 194 500 194 q 511 194 516 194 q 544 194 548 200 q 553 205 557 236 l 557 246 l 605 242 q 601 207 598 165 q 595 123 595 87 z"},"9":{"x_min":0,"x_max":671,"ha":671,"o":"m 616 281 q 596 209 562 153 q 528 97 483 60 q 430 18 362 -4 q 334 -12 306 -16 q 277 -19 247 -19 q 219 -19 198 -16 q 177 -12 160 -7 q 158 -6 128 2 q 114 6 108 6 q 96 6 89 -16 l 59 5 q 84 45 102 85 l 109 101 l 118 125 q 138 177 143 213 l 190 212 l 190 200 q 192 180 200 172 q 207 165 228 165 q 235 165 243 165 q 256 167 263 167 l 284 170 q 344 181 375 210 q 406 240 406 280 q 381 274 339 267 q 327 265 310 264 q 294 263 280 263 q 169 263 104 323 q 39 383 39 479 q 39 514 48 550 q 68 637 154 696 q 221 742 315 742 q 324 742 336 741 q 348 740 355 740 q 419 734 470 707 q 551 664 592 594 q 632 524 632 412 q 632 372 628 344 q 625 315 616 281 z m 367 556 q 347 565 328 565 q 319 565 308 562 q 263 548 258 502 q 258 480 264 468 q 269 457 286 446 q 303 436 331 436 q 361 436 380 450 q 406 470 406 501 q 406 526 387 543 q 376 552 367 556 z"}," ":{"x_min":0,"x_max":290,"ha":290,"o":""},"I":{"x_min":0,"x_max":386,"ha":386,"o":"m 367 -12 l 306 -5 q 243 2 177 2 q 91 2 12 -12 l 9 28 l 34 34 q 49 34 55 34 q 70 34 77 68 q 84 101 84 213 q 84 245 84 277 q 84 309 85 341 l 78 573 q 78 650 72 666 q 66 681 37 687 l 6 693 l 0 736 l 48 732 q 114 732 182 731 q 251 730 305 730 l 374 735 l 370 699 l 362 697 q 315 683 315 682 q 302 651 302 452 q 302 407 302 362 q 302 318 303 274 q 303 77 315 47 q 317 41 368 26 l 379 24 z"},"H":{"x_min":0,"x_max":838,"ha":838,"o":"m 796 681 q 759 673 753 632 q 747 590 747 363 q 747 320 749 218 q 751 117 751 110 l 753 61 l 754 56 q 754 44 762 38 q 769 33 791 29 l 806 27 l 798 -23 q 756 -14 720 -8 q 683 -3 650 -3 q 606 -3 555 -4 q 504 -5 459 -15 l 458 25 q 464 24 475 26 q 503 32 508 50 q 512 69 512 152 l 509 263 q 485 263 428 265 q 372 267 369 267 l 317 265 l 315 149 q 315 70 322 54 q 328 39 371 26 l 384 23 l 377 -11 l 356 -9 l 351 -9 l 246 0 l 234 2 l 143 2 q 105 2 78 -2 q 52 -6 14 -17 l 7 22 l 17 25 q 66 46 76 96 q 86 147 86 361 l 86 525 q 86 645 82 663 q 78 681 52 686 l 29 690 l 21 692 l 29 730 l 87 724 l 164 724 q 232 724 278 726 q 324 729 369 738 l 376 698 q 367 699 363 699 q 335 699 326 676 q 317 653 317 584 l 318 475 q 367 475 416 474 q 466 474 516 474 l 518 579 q 518 597 518 612 q 518 628 519 642 q 519 674 512 680 q 505 685 467 689 l 456 690 l 463 728 l 507 724 q 613 714 660 714 q 703 714 762 721 l 798 725 l 807 726 l 809 682 q 805 683 796 681 z"},"4":{"x_min":0,"x_max":667,"ha":667,"o":"m 578 142 l 571 157 l 567 165 l 560 182 q 554 198 527 195 l 514 193 l 515 154 l 515 142 l 516 132 l 517 83 q 517 58 530 48 q 543 38 582 33 l 599 32 l 594 -10 l 538 -2 q 512 1 486 3 q 460 5 435 5 q 360 5 313 0 q 266 -4 212 -17 l 211 29 l 224 30 q 271 35 280 48 q 288 62 288 129 l 289 181 q 236 186 192 186 q 160 186 122 183 q 85 180 50 175 q 38 198 32 208 q 15 238 -3 262 l -21 288 q 230 570 507 847 q 507 736 506 667 q 502 392 502 367 l 514 367 q 547 367 558 378 q 568 388 568 424 l 568 433 l 610 432 l 607 413 l 605 397 l 602 352 q 602 308 602 254 q 603 200 613 156 z m 309 475 l 281 445 q 245 403 219 360 l 244 361 l 268 362 l 286 363 l 304 365 l 309 415 z"},"D":{"x_min":0,"x_max":778,"ha":778,"o":"m 635 83 q 584 36 540 16 q 496 -3 425 -3 q 407 -3 353 -2 q 299 0 242 0 q 201 0 160 -2 q 118 -5 48 -15 l 30 -18 l 15 -20 l 7 22 l 35 26 q 76 32 82 78 q 89 124 89 340 q 89 381 83 465 q 77 549 77 592 q 77 655 71 668 q 65 682 38 686 l 11 690 l 13 724 l 46 720 q 93 715 114 714 q 135 713 156 713 l 276 726 q 351 734 400 734 q 475 734 524 720 q 574 705 617 673 q 709 606 739 486 q 743 470 746 449 q 749 428 749 408 q 749 187 635 83 z m 334 525 l 312 524 l 313 448 l 314 372 l 315 296 l 315 220 l 342 222 q 383 222 397 226 q 411 229 434 244 q 466 264 482 292 q 499 320 499 360 q 499 447 461 486 q 423 525 334 525 z"},"0":{"x_min":0,"x_max":667,"ha":667,"o":"m 352 -15 q 337 -15 325 -15 q 311 -15 304 -14 q 170 0 108 72 q 45 145 32 306 l 30 359 l 32 412 q 45 573 108 646 q 170 719 304 733 q 312 734 320 734 q 328 734 333 734 q 352 734 362 733 q 500 719 565 647 q 635 569 635 411 q 635 403 636 386 q 637 369 637 359 q 637 345 637 339 q 637 331 637 323 q 635 311 635 306 q 621 140 558 65 q 491 -15 352 -15 z m 377 491 q 354 504 334 504 q 322 504 312 501 q 303 498 290 491 q 267 477 260 451 q 253 425 253 343 l 254 311 q 254 259 272 238 q 290 217 333 217 q 376 217 394 238 q 413 260 413 311 q 413 423 408 449 q 404 475 377 491 z"},"F":{"x_min":0,"x_max":574,"ha":574,"o":"m 530 485 l 527 491 l 521 506 q 508 533 491 538 q 474 544 412 544 l 298 539 l 298 447 l 303 446 l 352 444 q 389 444 402 452 q 416 461 414 484 l 451 482 l 450 431 l 450 370 q 450 339 450 315 q 451 291 457 245 l 460 223 l 461 215 l 423 210 l 419 225 q 411 250 404 255 q 398 260 372 260 q 358 260 348 260 l 297 257 l 298 201 q 298 74 304 59 q 309 44 359 37 l 368 37 l 363 -6 l 327 -4 q 284 -4 246 -4 q 207 -3 174 -3 q 141 -3 116 -4 q 92 -5 63 -9 l 40 -13 l 23 -15 l 17 22 l 44 28 q 73 34 80 62 q 88 90 88 199 q 88 213 88 220 q 88 233 88 240 q 88 252 88 258 q 88 269 88 275 q 88 285 88 291 q 88 300 88 305 q 88 314 88 318 q 88 326 88 329 q 88 347 88 366 q 87 386 87 407 q 87 415 87 419 l 80 561 l 79 575 l 74 615 q 65 669 62 676 q 59 682 34 686 l 11 690 l 18 731 l 199 723 q 213 723 242 722 q 271 721 286 721 q 326 721 361 720 q 396 720 426 720 q 489 720 500 728 q 510 735 510 773 l 510 783 l 550 783 l 550 759 q 550 619 552 582 q 554 545 567 488 z"},"`":{"x_min":0,"x_max":335,"ha":335,"o":"m 154 763 l 29 923 l 232 923 l 306 764 z"},"U":{"x_min":0,"x_max":875,"ha":875,"o":"m 843 693 q 802 684 791 673 q 776 658 776 618 q 776 584 780 551 q 784 518 786 502 q 788 485 788 460 q 788 435 789 420 q 789 280 747 184 q 710 99 638 45 q 592 10 540 -6 q 489 -21 426 -21 q 323 -21 249 27 q 175 75 131 163 q 108 208 96 279 q 83 350 83 455 l 90 655 q 90 685 84 690 q 78 696 43 696 l 37 696 l 36 738 q 55 738 94 734 q 132 731 174 731 l 279 731 q 308 731 332 734 q 355 736 392 742 l 396 699 l 383 698 q 350 693 344 667 q 337 641 337 500 l 336 480 q 336 353 348 304 q 361 254 394 234 q 421 219 445 219 q 509 219 532 317 q 537 340 541 401 q 545 462 545 570 l 542 631 q 537 677 533 682 q 529 688 493 695 l 484 697 l 485 739 l 537 733 q 627 723 694 723 q 719 723 743 724 q 767 725 813 731 l 850 737 l 853 695 z"},"N":{"x_min":0,"x_max":868,"ha":868,"o":"m 838 692 q 799 683 790 656 q 782 628 782 493 l 783 187 l 786 27 l 789 -64 l 721 -16 l 653 32 l 573 87 l 491 144 l 404 203 l 318 261 l 316 151 q 316 67 320 50 q 325 34 354 26 l 378 19 l 370 -17 l 321 -10 q 243 -1 181 -1 q 106 -1 29 -14 l 11 -17 l 1 -19 l 0 20 l 10 23 q 64 43 71 58 q 78 74 78 172 l 78 181 l 84 324 l 85 753 q 301 569 534 425 l 530 475 l 530 480 q 530 625 524 649 q 519 673 488 684 l 467 691 l 475 732 l 500 728 l 530 725 q 559 721 598 719 q 637 717 669 717 q 733 717 804 726 l 827 729 l 847 732 l 854 694 z"},"G":{"x_min":0,"x_max":741,"ha":741,"o":"m 660 230 l 658 200 l 656 116 l 656 95 l 654 48 l 634 36 q 525 -21 416 -21 q 331 -21 265 3 q 157 43 92 130 q 27 217 27 334 q 27 376 30 406 q 33 435 44 472 q 81 600 174 672 q 271 747 415 747 q 453 747 484 745 q 514 743 532 739 q 600 721 613 721 q 629 721 640 748 l 672 737 q 652 677 641 624 q 630 570 630 511 l 628 460 l 588 466 l 588 475 q 588 506 580 512 q 573 519 525 533 q 516 535 512 536 q 495 540 486 540 q 476 542 465 542 q 454 542 448 542 q 298 542 267 406 q 262 381 262 363 q 262 341 268 320 q 280 274 304 246 q 327 217 355 209 q 383 201 402 201 q 444 201 444 244 l 444 271 l 444 277 q 444 304 438 311 q 432 318 401 324 l 393 325 l 403 364 q 440 356 469 353 q 525 346 575 346 q 609 346 637 350 q 665 354 695 362 l 706 365 l 717 368 l 725 323 q 696 323 682 304 q 667 284 660 230 z"},"1":{"x_min":0,"x_max":667,"ha":667,"o":"m 502 -13 l 463 -8 q 385 0 326 0 q 241 0 163 -15 l 154 23 q 164 22 177 25 q 221 36 230 80 q 238 123 238 332 l 237 462 q 237 552 228 580 q 220 608 192 608 q 187 608 169 606 l 154 603 l 152 646 l 178 653 l 244 671 q 315 690 365 707 q 415 724 457 742 q 457 684 453 618 q 443 452 443 438 q 443 374 442 306 q 442 238 441 166 q 441 78 448 60 q 455 41 488 32 l 494 30 l 514 23 z"},"5":{"x_min":0,"x_max":667,"ha":667,"o":"m 530 505 l 524 520 l 522 525 l 516 544 q 513 547 500 547 q 492 547 486 547 l 346 543 l 339 505 l 371 496 q 430 478 455 464 q 480 450 509 418 q 533 391 546 362 q 558 333 563 287 q 563 280 564 270 q 565 260 565 250 q 565 177 533 118 q 510 76 484 52 q 459 28 416 9 q 391 -2 364 -8 q 337 -14 302 -14 q 244 -14 139 7 q 124 9 116 4 q 109 0 99 -19 l 96 -27 l 67 -15 q 87 87 98 198 l 103 261 l 138 260 l 144 231 q 151 200 164 191 q 176 182 223 177 q 229 176 242 176 q 285 176 308 197 q 338 223 338 253 q 338 295 287 321 l 275 327 q 253 336 226 338 q 199 341 137 341 l 107 338 q 145 478 168 625 l 181 721 q 241 709 303 709 q 447 709 473 716 q 499 722 512 764 l 514 773 l 557 763 l 551 721 q 549 705 548 692 q 547 678 547 660 q 547 613 564 543 l 570 519 l 571 515 z"}}}
